# xmcd
#
# Track frame offsets: 
#        150
#        19218
#        38607
#        56281
#        71642
#        84138
#        103322
#        120708
#        139086
#        155816
#        173359
#        191658
#        207666
#
# Disc length: 3069 seconds
#
# Revision: 9
# Processed by: cddbd v1.5.2PL0 Copyright (c) Steve Scherf et al.
# Submitted via: ExactAudioCopyFreeDBPlugin 1.0
#
DISCID=b00bfb0d
DTITLE=Fantasia - Free Yourself
DYEAR=2004
DGENRE=R&B
TTITLE0=Ain't Gon' Beg You
TTITLE1=Free Yourself ft. Missy Elliott
TTITLE2=Truth Is
TTITLE3=Selfish (I Want U 2 Myself) ft. Missy Elliott
TTITLE4=Summertime
TTITLE5=Baby Mama
TTITLE6=Got Me Waiting
TTITLE7=It's All Good
TTITLE8=You Were Always On My Mind
TTITLE9=Good Lovin'
TTITLE10=Don't Act Right ft. Jazze Pha
TTITLE11=This Is Me
TTITLE12=I Believe
EXTD=Info by G.O.K.I. (http://gokimusic.cjb.net)
EXTT0=by G.O.K.I. (http://gokimusic.cjb.net)
EXTT1=Info by G.O.K.I. (http://gokimusic.cjb.net)
EXTT2=Info by G.O.K.I. (http://gokimusic.cjb.net)
EXTT3=Info by G.O.K.I. (http://gokimusic.cjb.net)
EXTT4=Info by G.O.K.I. (http://gokimusic.cjb.net)
EXTT5=Info by G.O.K.I. (http://gokimusic.cjb.net)
EXTT6=Info by G.O.K.I. (http://gokimusic.cjb.net)
EXTT7=Info by G.O.K.I. (http://gokimusic.cjb.net)
EXTT8=Info by G.O.K.I. (http://gokimusic.cjb.net)
EXTT9=Info by G.O.K.I. (http://gokimusic.cjb.net)
EXTT10=Info by G.O.K.I. (http://gokimusic.cjb.net)
EXTT11=Info by G.O.K.I. (http://gokimusic.cjb.net)
EXTT12=Info by G.O.K.I. (http://gokimusic.cjb.net)
PLAYORDER=
